<?xml version="1.0" encoding="utf-8"?>
<!-- Generator: Adobe Illustrator 12.0.1, SVG Export Plug-In . SVG Version: 6.00 Build 51448)  -->
<!DOCTYPE svg PUBLIC "-//W3C//DTD SVG 1.1//EN" "http://www.w3.org/Graphics/SVG/1.1/DTD/svg11.dtd" [
	<!ENTITY ns_svg "http://www.w3.org/2000/svg">
	<!ENTITY ns_xlink "http://www.w3.org/1999/xlink">
]>
<svg  version="1.1" id="Layer_1" xmlns="&ns_svg;" xmlns:xlink="&ns_xlink;" width="764.993" height="269.339"
	 viewBox="0 0 764.993 269.339" overflow="visible" enable-background="new 0 0 764.993 269.339" xml:space="preserve">
<g>
	<path fill-rule="evenodd" clip-rule="evenodd" d="M77.344,31.115c-0.612,0.72-0.836,1.817-0.757,3.21
		c2.429-0.281,3.125-4.622,5.567-2.476c-2.034,3.02-4.717,5.407-9.523,5.73C74.371,35.588,74.31,31.846,77.344,31.115z"/>
	<path fill-rule="evenodd" clip-rule="evenodd" fill="#F1E5C8" d="M706.934,24.184c2.352,0.687,2.467,0.685,4.8-0.065
		c0.361,1.667-0.52,2.125-0.757,3.211c-0.871-0.186-0.564-1.583-1.622-1.579c-0.806,0.53-0.802,1.85-2.378,1.632
		C706.962,26.317,706.948,25.25,706.934,24.184z"/>
	<path fill-rule="evenodd" clip-rule="evenodd" d="M696.556,25.925c1.358,2.654-0.316,8.069-1.438,12.021
		C691.187,34.68,696.387,30.069,696.556,25.925z"/>
	<path fill-rule="evenodd" clip-rule="evenodd" d="M51.064,40.271c1.66-1.913,6.246,0.026,6.433,2.313
		C54.382,42.811,53.326,40.922,51.064,40.271z"/>
	<path fill-rule="evenodd" clip-rule="evenodd" d="M47.076,41.125c3.061,0.64,5.121,2.31,8.043,3.092
		C54.318,46.762,47.498,44.087,47.076,41.125z"/>
	<path fill-rule="evenodd" clip-rule="evenodd" d="M42.309,43.591c2.62,0.282,5.181,0.624,5.643,3.124
		C45.927,45.82,42.459,46.41,42.309,43.591z"/>
	<path fill-rule="evenodd" clip-rule="evenodd" d="M82.307,43.048c2.527,0.108,4.779,0.498,4.843,3.135
		C85.253,45.428,82.072,45.994,82.307,43.048z"/>
	<path fill-rule="evenodd" clip-rule="evenodd" fill="#F1E5C8" d="M204.787,47.79c-0.592,6.002-5.163,8.132-7.837,12.107
		c-8.485-0.253-15.667,0.38-25.599,0.347c0.003-2.436-1.731-3.088-2.464-4.767c1.195-3.311,4.151-4.907,5.491-8.076
		C186.244,47.208,192.104,46.208,204.787,47.79z"/>
	<path fill-rule="evenodd" clip-rule="evenodd" fill="#F1E5C8" d="M165.578,47.521c1.867-0.025,3.733-0.051,5.6-0.076
		c0.02,2.387-2.043,2.748-2.334,4.833C166.281,52.207,165.299,50.512,165.578,47.521z"/>
	<path fill-rule="evenodd" clip-rule="evenodd" fill="#F1E5C8" d="M220.808,49.173c1.911,4.959-2.32,7.397-4.659,10.464
		c-3.954-2.425-5.608-7.215-7.362-11.901C211.896,46.232,218.336,47.411,220.808,49.173z"/>
	<path fill-rule="evenodd" clip-rule="evenodd" d="M715.95,40.064c-0.212,2.164-3.347,1.48-3.958,3.254
		C709.904,41.99,713.177,39.27,715.95,40.064z"/>
	<path fill-rule="evenodd" clip-rule="evenodd" d="M71.194,49.6c9.726,5.292,17.79,16.131,31.404,14.776
		C97.004,71.007,75.74,56.249,71.194,49.6z"/>
	<path fill-rule="evenodd" clip-rule="evenodd" d="M119.311,57.75c-11.863,6.569-25.843-4.46-36.896-6.701
		C92.223,49.053,104.997,61.646,119.311,57.75z"/>
	<path fill-rule="evenodd" clip-rule="evenodd" d="M112.846,53.036c-4.435,2.104-10.381-1.215-14.432-2.205
		C100.77,48.148,108.484,52.527,112.846,53.036z"/>
	<path fill-rule="evenodd" clip-rule="evenodd" fill="#F1E5C8" d="M161.589,48.375c3.992,5.335,4.096,13.244-4.616,13.664
		c-1.207-1.734-1.619-4.285-3.275-5.556C155.99,53.452,156.509,48.694,161.589,48.375z"/>
	<path fill-rule="evenodd" clip-rule="evenodd" d="M73.864,69.566c-1.493,6.157-7.357,1.763-8.788,0.919
		c-6.513-3.839-9.663-18.389-21.027-16.518c-5.088,0.838-2.929,4.473-8.724,5.719c8.762-21.603,25.128,2.225,32.129,9.166
		C69.71,70.779,72.307,67.655,73.864,69.566z"/>
	<path fill-rule="evenodd" clip-rule="evenodd" fill="#F1E5C8" d="M150.4,49.327c1.867-0.025,3.733-0.05,5.6-0.076
		c-0.516,1.866-2.629,2.177-3.146,4.043C151.267,52.762,150.693,51.189,150.4,49.327z"/>
	<path fill-rule="evenodd" clip-rule="evenodd" fill="#F1E5C8" d="M233.596,48.2c3.822,4.354,3.65,10.009-1.426,12.821
		c-3.374-1.94-4.261-6.437-6.53-9.513C227.358,49.497,228.839,47.255,233.596,48.2z"/>
	<path fill-rule="evenodd" clip-rule="evenodd" fill="#F1E5C8" d="M141.612,50.246c1.562,2.5-3.29,4.366-3.902,7.254
		c-2.735-0.164-1.687-4.215-4.065-4.746C134.713,50.374,139.421,51.535,141.612,50.246z"/>
	<path fill-rule="evenodd" clip-rule="evenodd" fill="#F1E5C8" d="M144.012,50.213c4.325-0.387,3.532,4.483,5.687,6.324
		c0.698,2.837-4.91,3.571-2.324,5.632c-1.353,1.578-4.119,1.78-7.178,1.698c0.097-1.992-1.29-2.459-1.654-3.979
		C139.608,55.927,143.522,54.737,144.012,50.213z"/>
	<path fill-rule="evenodd" clip-rule="evenodd" fill="#F1E5C8" d="M276.967,60.414c-1.918,2.344-2.915,5.583-5.502,7.276
		c-8.619-1.418-17.075-3.004-25.664-4.453c-0.671-4.177-3.657-5.975-4.929-9.534c6.619-7.837,21.645,1.242,32.82,1.155
		C274.58,56.918,276.625,57.792,276.967,60.414z"/>
	<path fill-rule="evenodd" clip-rule="evenodd" d="M722.394,43.177c-0.215,2.687-3.595,2.291-6.368,2.487
		C716.905,43.625,719.539,43.294,722.394,43.177z"/>
	<path fill-rule="evenodd" clip-rule="evenodd" d="M61.67,55.33c10.948,4.164,22.118,15.124,35.469,19.522
		c-5.825,1.373-12.46-4.202-18.507-7.75C72.593,63.559,66.337,59.223,61.67,55.33z"/>
	<path fill-rule="evenodd" clip-rule="evenodd" fill="#F1E5C8" d="M205.651,52.579c3.213,0.755,3.556,4.458,4.898,7.135
		c-2.933,0.04-5.867,0.079-8.8,0.119C199.95,57.102,205.467,55.883,205.651,52.579z"/>
	<path fill-rule="evenodd" clip-rule="evenodd" fill="#F1E5C8" d="M560.845,48.566c-0.47,4.017-2.382,6.629-5.491,8.075
		c-0.79-2.975-3.847-3.618-4.098-7.146C553.169,47.937,557.677,48.905,560.845,48.566z"/>
	<path fill-rule="evenodd" clip-rule="evenodd" fill="#F1E5C8" d="M600.205,60.035c-0.979,0.363-1.63,1.046-1.567,2.421
		c-10.934,0.642-26.172-1.191-40.009-0.258c-0.05-4.63,5.26-9.875,8.615-13.718c8.857,0.504,19.004,0.491,27.22,1.231
		C595.886,53.658,599.932,54.908,600.205,60.035z"/>
	<path fill-rule="evenodd" clip-rule="evenodd" d="M685.639,46.875c-1.91,4.365-11.872,3.128-14.367,2.595
		C675.269,47.835,681.539,48.412,685.639,46.875z"/>
	<path fill-rule="evenodd" clip-rule="evenodd" fill="#F1E5C8" d="M546.467,50.362c-2.636,1.907-4.05,5.004-5.491,8.075
		c-3.086-1.076-5.37-4.791-4.108-7.945C538.686,49.216,544.615,49.136,546.467,50.362z"/>
	<path fill-rule="evenodd" clip-rule="evenodd" fill="#F1E5C8" d="M221.684,54.762c2.583,0.861,3.875,3.048,4.087,6.345
		c-3.985-0.149-3.408-0.286-6.411-0.713C219.014,57.426,222.573,58.259,221.684,54.762z"/>
	<path fill-rule="evenodd" clip-rule="evenodd" fill="#F1E5C8" d="M531.268,50.567c-0.111,4.365-2.113,6.89-5.491,8.075
		c-0.503-3.268-3.733-3.733-4.097-7.146C526.794,51.394,527.377,50.834,531.268,50.567z"/>
	<path fill-rule="evenodd" clip-rule="evenodd" fill="#F1E5C8" d="M604.874,50.37c-0.109,3.051-1.063,5.279-3.923,5.654
		c-0.523-2.167-1.639-3.725-3.266-4.756C598.669,47.848,601.662,51.292,604.874,50.37z"/>
	<path fill-rule="evenodd" clip-rule="evenodd" d="M731.268,48.658c-1.251,2.075-5.37,0.911-9.578,1.729
		C722.543,47.275,728.551,47.666,731.268,48.658z"/>
	<path fill-rule="evenodd" clip-rule="evenodd" d="M696.869,49.124c-1.921,5.331-10.276,8.286-15.09,8.206
		C687.021,54.799,692.536,52.538,696.869,49.124z"/>
	<path fill-rule="evenodd" clip-rule="evenodd" fill="#F1E5C8" d="M518.489,52.341c1.929,3.836,7.247,7.124,5.763,11.924
		c-7.399,2.007-16.348,2.508-23.944,4.325C505.022,61.862,506.068,51.565,518.489,52.341z"/>
	<path fill-rule="evenodd" clip-rule="evenodd" d="M54.676,70.627c-4.27-2.138-1.418-6.798-5.708-7.924
		c-6.405-1.683-7.648,4.633-7.059,10.497C32.65,58.143,58.695,55.697,54.676,70.627z"/>
	<path fill-rule="evenodd" clip-rule="evenodd" fill="#F1E5C8" d="M548.899,52.729c1.761,2.857,6.121,5.283,4.918,8.734
		c-3.073,0.723-8.548,2.327-11.188,0.952C544.114,58.597,546.842,55.989,548.899,52.729z"/>
	<path fill-rule="evenodd" clip-rule="evenodd" fill="#F1E5C8" d="M608.896,51.916c4.3,0.178,4.768,4.295,6.497,7.113
		c-1.053,2.133-2.601,3.785-3.925,5.653c-3.924,0.247-5.098-2.332-7.253-3.902C604.568,56.65,608.347,55.854,608.896,51.916z"/>
	<path fill-rule="evenodd" clip-rule="evenodd" fill="#F1E5C8" d="M615.295,51.829c1.853-0.28,3.073,0.087,4.013,0.747
		c-0.68,1.18-1.164,2.552-3.168,2.443C615.509,54.314,615.255,53.223,615.295,51.829z"/>
	<path fill-rule="evenodd" clip-rule="evenodd" fill="#F1E5C8" d="M289.129,72.25c-4.396-3.054-6.605-8.354-8.195-14.291
		C290.055,54.461,298.896,67.5,289.129,72.25z"/>
	<path fill-rule="evenodd" clip-rule="evenodd" fill="#F1E5C8" d="M501.713,54.168c3.2,4.023-4.143,10.428-7.016,13.696
		c-0.671-2.825-2.87-4.081-4.087-6.345C490.42,55.282,497.762,56.375,501.713,54.168z"/>
	<path fill-rule="evenodd" clip-rule="evenodd" fill="#F1E5C8" d="M236.937,58.556c3.146-0.529,3.567,1.741,4.054,3.945
		c-1.6,0.021-3.2,0.043-4.8,0.065C235.5,60.314,237.291,60.478,236.937,58.556z"/>
	<path fill-rule="evenodd" clip-rule="evenodd" fill="#F1E5C8" d="M372.152,58.324c-5.031,2.739,2.068,5.225,0.119,8.799
		c-2.964,2.453-4.237-2.251-7.232-2.302c-0.056,4.382,3.002,5.567,5.697,7.123c0.244,2.605-0.897,3.863-3.146,4.043
		c-3.22,0.335-1.301-4.61-4.854-3.935c-3.271,2.014,2.449,6.637,4.908,7.935c-0.08,3.343-3.889,3.056-6.345,4.086
		c-3.651-0.034-3.32-4.159-6.465-4.713c-2.146,2.787,2.199,5.82,4.097,7.145c2.755,0.313,4.479-0.376,6.389-0.886
		c0.955,2.157,0.414,1.986,0.065,4.8c-2.288-0.444-4.627-3.418-3.978,1.654c-7.065,1.582-6.625-4.548-10.487-6.258
		c-0.671,3.95,3.078,10.344,9.73,9.469c-0.921,4.671-6.265,0.177-7.946,4.109c-5.426-0.644-3.131-9.219-7.351-11.102
		c-0.586,4.94,1.367,14.269,8.195,14.291c-1.545,3.714-4.046,5.286-8.745,4.119c-1.456-4.452-3.824-7.967-4.184-13.545
		c-6.034,3.722,4.971,13.212,1.86,19.177c-6.476-8.757-10.062-20.484-10.876-35.057c17.494-0.604,25.657-10.29,33.328-20.455
		C368.535,57.274,368.053,60.122,372.152,58.324z"/>
	<path fill-rule="evenodd" clip-rule="evenodd" fill="#F1E5C8" d="M628.117,53.256c1.534,0.315,3.447,0.243,3.232,2.356
		C629.998,57.076,628.2,55.41,628.117,53.256z"/>
	<path fill-rule="evenodd" clip-rule="evenodd" fill="#F1E5C8" d="M402.539,57.112c6.937,12.338,17.462,20.992,35.501,21.923
		c-1.088,12.359-4.132,22.816-8.365,32.117c-3.606,0.192-3.981,1.034-6.41-0.713c3.481-5.623,9.208-13.052,7.718-20.907
		c-3.805,4.455-3.562,12.848-9.394,15.329c-1.873-0.238-3.317-0.917-4.82-1.535c3.712-5.504,5.679-8.11,7.804-14.508
		c-3.359-2.142-1.469,5.546-6.368,2.486c4.692,6.4-10.103,10.124-7.987,0.909c5.471-0.464,6.557-5.197,8.68-8.918
		c-5.025,1.161-4.878,7.356-11.913,6.562c-0.363-1.519-1.75-1.987-1.654-3.978c2.738-1.283,7.197-0.89,7.945-4.108
		c-2.145-3.584-8.312,3.411-11.988,0.962c-0.453-1.157,0.88-4.147-0.854-3.989c1.383-2.865,6.19-2.396,6.312-6.487
		c-3.017-2.628-3.85,3.586-7.967,2.508c-3.575-5.597,4.059-6.376,4.66-10.464c-3.31-2.646-3.145,3.368-7.168,2.497
		C397.03,62.275,396.904,56.891,402.539,57.112z"/>
	<path fill-rule="evenodd" clip-rule="evenodd" fill="#F1E5C8" d="M622.527,54.131c4.139-0.736,3.124,3.822,5.665,4.724
		c-0.135,3.026-2.462,3.919-3.113,6.443C620.311,63.221,619.556,58.354,622.527,54.131z"/>
	<path fill-rule="evenodd" clip-rule="evenodd" d="M670.558,55.881c-2.093,1.833-6.779-0.568-9.61-0.67
		C661.88,52.361,667.938,55.379,670.558,55.881z"/>
	<path fill-rule="evenodd" clip-rule="evenodd" fill="#F1E5C8" d="M195.372,61.519c-4.032,3.707-14.864,0.795-21.577,1.893
		C179.312,59.439,187.037,62.497,195.372,61.519z"/>
	<path fill-rule="evenodd" clip-rule="evenodd" fill="#F1E5C8" d="M532.942,56.145c3.731-0.048,4.347,3.105,5.677,5.524
		c-0.739,0.597-1.192,1.471-1.567,2.422c-2.502-1.638-5.246,0.677-8.011-0.692C529.457,60.119,532.673,59.566,532.942,56.145z"/>
	<path fill-rule="evenodd" clip-rule="evenodd" d="M737.766,55.771c-4.219-1.526-7.627,1.055-11.21-0.648
		C729.337,53.473,736.007,52.432,737.766,55.771z"/>
	<path fill-rule="evenodd" clip-rule="evenodd" fill="#F1E5C8" d="M168.206,64.288c-1.655-0.461-5.54,1.367-4.821-1.535
		C165.338,62.084,167.979,61.316,168.206,64.288z"/>
	<path fill-rule="evenodd" clip-rule="evenodd" fill="#F1E5C8" d="M199.371,61.465c4.154,0.329,9.916-0.996,12.811,0.627
		C210.327,65.141,201.043,63.796,199.371,61.465z"/>
	<path fill-rule="evenodd" clip-rule="evenodd" d="M729.863,63.078c-16.185-16.839-21.003,14.745-39.047,11.731
		c0.418-3.278,5.625-1.894,7.957-3.308C705.107,63.518,724.455,44.289,729.863,63.078z"/>
	<path fill-rule="evenodd" clip-rule="evenodd" d="M50.623,66.681c0.299,3.185,0.124,5.91-1.502,7.221
		C39.311,74.761,44.718,58.823,50.623,66.681z"/>
	<path fill-rule="evenodd" clip-rule="evenodd" fill="#F1E5C8" d="M217.781,62.016c3.503,0.455,8.42-0.541,9.632,2.27
		C223.698,64.047,218.429,65.406,217.781,62.016z"/>
	<path fill-rule="evenodd" clip-rule="evenodd" fill="#F1E5C8" d="M485.778,59.185c-0.819,4.993-3.756,7.922-6.247,11.287
		c-2.644,0.012-2.002-3.351-4.056-3.946C475.978,61.594,480.747,57.132,485.778,59.185z"/>
	<path fill-rule="evenodd" clip-rule="evenodd" d="M704.156,55.426c2.807,4.173-6.765,9.638-12.659,10.573
		C695.345,62.111,702.009,60.966,704.156,55.426z"/>
	<path fill-rule="evenodd" clip-rule="evenodd" fill="#F1E5C8" d="M134.597,63.943c2.638-0.007,3.088,2.233,3.265,4.757
		c-3.468-0.909-4.449,2.682-6.389,0.887C131.808,67.019,134.48,66.724,134.597,63.943z"/>
	<path fill-rule="evenodd" clip-rule="evenodd" fill="#F1E5C8" d="M153.795,63.683c0.201,2.353-5.135,3.352-6.378,1.687
		C146.886,62.221,151.797,64.369,153.795,63.683z"/>
	<path fill-rule="evenodd" clip-rule="evenodd" d="M694.567,56.355c4.044,1.709-2.695,2.688-2.324,5.633
		c-9.662,2.105-18.31,3.561-29.577,2C670.456,61.033,689.879,64.726,694.567,56.355z"/>
	<path fill-rule="evenodd" clip-rule="evenodd" d="M105.009,65.144c2.416,1.032,6.131,0.73,9.61,0.67
		C113.58,69.119,105.248,69.208,105.009,65.144z"/>
	<path fill-rule="evenodd" clip-rule="evenodd" fill="#F1E5C8" d="M242.624,64.88c-0.563,2.866-5.783,0.486-8,0.108
		C235.675,62.597,240.114,64.217,242.624,64.88z"/>
	<path fill-rule="evenodd" clip-rule="evenodd" fill="#F1E5C8" d="M311.496,69.547c-1.52,3.256-3.223,6.336-6.291,8.086
		c-1.368-5.204-7.385-9.553-6.595-14.313C304.475,60.728,309.225,65.794,311.496,69.547z"/>
	<path fill-rule="evenodd" clip-rule="evenodd" fill="#F1E5C8" d="M277.811,63.603c2.498,0.949,3.558,3.375,4.086,6.346
		c-2.98,0.089-5.07-0.738-7.221-1.502C274.496,65.639,277.342,65.778,277.811,63.603z"/>
	<path fill-rule="evenodd" clip-rule="evenodd" d="M644.192,58.639c4.261,0.218,7.759,1.219,12.021,1.437
		C654.683,62.792,645.406,61.439,644.192,58.639z"/>
	<path fill-rule="evenodd" clip-rule="evenodd" fill="#F1E5C8" d="M375.417,63.081c6.133-0.083,12.266-0.166,18.399-0.249
		c-0.614,4.56,3.573,8.316,1.764,11.977c-5.771-1.373-13.847-0.373-20.811-0.518C375.803,70.726,373.11,67.792,375.417,63.081z"/>
	<path fill-rule="evenodd" clip-rule="evenodd" fill="#F1E5C8" d="M248.234,65.604c7.953,0.481,14.629,2.273,21.653,3.707
		C265.163,71.722,253.131,68.347,248.234,65.604z"/>
	<path fill-rule="evenodd" clip-rule="evenodd" fill="#F1E5C8" d="M470.634,63.391c-0.816,5.784-4.886,8.402-7.026,12.897
		c-2.397-3.215-5.549-5.656-6.541-10.313C461.271,65.147,466.302,61.53,470.634,63.391z"/>
	<path fill-rule="evenodd" clip-rule="evenodd" fill="#F1E5C8" d="M488.242,63.952c2.188,0.998,2.358,4.066,4.866,4.735
		c-1.457,2.792-6.223,2.364-9.557,3.33C484.426,68.657,487.508,67.446,488.242,63.952z"/>
	<path fill-rule="evenodd" clip-rule="evenodd" d="M729.171,71.089c-3.771-2.89-3.706-7.607-8.107-7.892
		c-5.899-0.38-6.111,6.179-10.269,9.741C709.037,58.401,731.65,57.872,729.171,71.089z"/>
	<path fill-rule="evenodd" clip-rule="evenodd" fill="#F1E5C8" d="M550.662,64.707c-0.631,1.694-4.188,2.251-5.589,0.875
		C546.222,63.189,548.154,64.7,550.662,64.707z"/>
	<path fill-rule="evenodd" clip-rule="evenodd" fill="#F1E5C8" d="M561.851,63.755c13.107,0.581,24.176-1.663,33.641,2.744
		C584.762,64.817,567.505,68.301,561.851,63.755z"/>
	<path fill-rule="evenodd" clip-rule="evenodd" fill="#F1E5C8" d="M617.047,63.007c2.176-0.612,1.633,1.568,3.223,1.556
		c-0.663,2.337-1.187,0.916-3.188,0.844C617.069,64.606,617.059,63.807,617.047,63.007z"/>
	<path fill-rule="evenodd" clip-rule="evenodd" fill="#F1E5C8" d="M315.474,67.893c5.166,0.1,8.162,2.428,12.053,3.837
		c1.402,24.515,9.628,42.018,19.19,58.148c-4.084,1.024-5.638,4.512-9.524,5.73c-2.359-5.688-4.774-11.316-9.005-15.08
		c-0.729-19.257-10.754-28.964-21.319-38.116c7.624-0.257,12.034,9.801,17.006,14.971c-0.737-7.422-9.336-13.608-15.449-18.192
		c0.065-3.095,3.202-3.2,3.924-5.654c5.125,3.926,5.202,13.041,11.416,15.848C326.075,83.091,316.764,75.784,315.474,67.893z"/>
	<path fill-rule="evenodd" clip-rule="evenodd" fill="#F1E5C8" d="M629.857,63.633c4.066,1.39,7.268,7.454,7.342,10.302
		c-2.532-1.724-6.071-2.415-9.644-3.07C631.506,68.088,628.515,67.97,629.857,63.633z"/>
	<path fill-rule="evenodd" clip-rule="evenodd" d="M110.728,73.868c0.499,2.59-0.494,3.729-0.724,5.61
		c-2.604,1.336-3.061-0.139-6.399,0.087C100.406,73.88,107.396,69.084,110.728,73.868z"/>
	<path fill-rule="evenodd" clip-rule="evenodd" fill="#F1E5C8" d="M295.485,68.964c1.961,1.229,3.042,3.363,3.287,6.356
		c-1.872-1.05-4.56-1.263-6.432-2.313C293.125,71.403,294.3,70.179,295.485,68.964z"/>
	<path fill-rule="evenodd" clip-rule="evenodd" fill="#F1E5C8" d="M273.097,70.067c3.748,1.016,8.378,1.125,11.244,3.048
		C281.243,74.649,274.349,73.128,273.097,70.067z"/>
	<path fill-rule="evenodd" clip-rule="evenodd" fill="#F1E5C8" d="M462.04,78.709c-3.306,3.887-9.653,4.814-11.869,9.762
		c3.172,1.83,6.331-6.729,9.534-4.93c-10.227,9.784-19.568,20.426-21.079,38.691c-2.794-0.495,0.166-5.148-0.918-8.789
		c-2.167,9.47-3.549,19.703-10.063,24.94c-2.443-1.276-4.701-2.74-6.466-4.713c10.022-17.459,20.312-38.497,20.754-62.689
		C451.92,64.389,458.138,70.855,462.04,78.709z"/>
	<path fill-rule="evenodd" clip-rule="evenodd" fill="#F1E5C8" d="M521.896,67.497c-6.205,2.908-14.872,3.419-23.145,4.314
		C503.813,68.244,515.767,67.417,521.896,67.497z"/>
	<path fill-rule="evenodd" clip-rule="evenodd" fill="#F1E5C8" d="M606.691,66.347c-0.983,3.42-3.977-0.024-7.188,0.898
		C599.62,64.715,605.387,65.31,606.691,66.347z"/>
	<path fill-rule="evenodd" clip-rule="evenodd" d="M649.89,65.762c0.534-0.008,1.065-0.015,1.601-0.021
		c7.304,3.108,17.093,6.915,26.506,7.642c2.689,0.208,6.955-3.013,8.021,1.492C670.145,75.972,660.268,71.868,649.89,65.762z"/>
	<path fill-rule="evenodd" clip-rule="evenodd" fill="#F1E5C8" d="M472.31,68.968c3.469-0.32,4.227,2.146,4.864,4.735
		c-2.539,0.573-6.191,2.871-7.979,1.708C469.314,72.37,472.519,72.33,472.31,68.968z"/>
	<path fill-rule="evenodd" clip-rule="evenodd" fill="#F1E5C8" d="M614.701,67.039c2.889,0.276,6.69-0.386,7.232,2.302
		C619.393,68.709,615.216,69.755,614.701,67.039z"/>
	<path fill-rule="evenodd" clip-rule="evenodd" d="M724.307,66.354c0.872,3.203,1.316,6.586-0.681,8.811
		c-5.448,1.777-8.786-0.495-8.098-7.091C717.572,66.298,721.128,64.778,724.307,66.354z"/>
	<path fill-rule="evenodd" clip-rule="evenodd" d="M64.341,75.296c7.033,4.13,15.037,7.261,27.285,6.031
		C83.695,86.528,68.417,81.77,64.341,75.296z"/>
	<path fill-rule="evenodd" clip-rule="evenodd" d="M672.31,67.059c2.597,1.496,11.093-0.149,14.41,0.605
		C684.849,70.682,673.449,70.131,672.31,67.059z"/>
	<path fill-rule="evenodd" clip-rule="evenodd" fill="#F1E5C8" d="M492.352,71.897c-0.673,4.082-6.913,2.745-10.346,4.141
		C483.314,72.574,488.971,73.343,492.352,71.897z"/>
	<path fill-rule="evenodd" clip-rule="evenodd" fill="#F1E5C8" d="M290.784,76.229c3.039-1.742,9.719-0.275,10.443,3.059
		C296.961,79.074,294.021,77.499,290.784,76.229z"/>
	<path fill-rule="evenodd" clip-rule="evenodd" d="M106.869,84.321c-0.813,4.677-5.776,5.685-8.767,2.519
		C96.735,79.689,105.875,78.587,106.869,84.321z"/>
	<path fill-rule="evenodd" clip-rule="evenodd" d="M652.387,72.929c6.32,2.429,12.41,5.093,20.874,5.318
		c-0.761,3.192-4.81,0.833-7.188,0.898c-1.747,0.141-1.689,2.039-1.545,4.021c-1.911,0.51-3.634,1.199-6.39,0.886
		c-0.944-2.042-2.65-5.033-0.086-6.4C657.393,74.816,652.602,76.224,652.387,72.929z"/>
	<path fill-rule="evenodd" clip-rule="evenodd" fill="#F1E5C8" d="M398.821,77.965c0.025,1.867,0.05,3.733,0.075,5.6
		c3.812,4.465,8.472,8.06,9.807,15.069c-15.476-2.039-30.063-1.98-44.02-1.003c2.78-5.264,5.92-12.591,8.529-20.119
		C382.164,77.235,390.838,77.246,398.821,77.965z"/>
	<path fill-rule="evenodd" clip-rule="evenodd" d="M26.841,83.006c1.954,0.424,4.124,0.628,4.043,3.145
		C29.672,84.962,26.32,85.974,26.841,83.006z"/>
	<path fill-rule="evenodd" clip-rule="evenodd" fill="#F1E5C8" d="M475.617,76.925c-1.672,2.319-5.085,2.945-8.756,3.318
		C467.437,76.858,472.417,77.757,475.617,76.925z"/>
	<path fill-rule="evenodd" clip-rule="evenodd" d="M57.25,83.394c9.852,1.773,16.151,7.198,28.885,6.01
		C78.32,94.032,63.989,87.613,57.25,83.394z"/>
	<path fill-rule="evenodd" clip-rule="evenodd" d="M44.494,86.767c8.149,0.481,17.812,9.156,29.685,5.998
		C64.652,99.155,52.129,90.154,44.494,86.767z"/>
	<path fill-rule="evenodd" clip-rule="evenodd" d="M98.134,89.241c3.25,1.179,3.367,8.276,0.13,9.599
		c-3.46,0.311-5.312-1.03-6.443-3.113C91.934,91.626,94.039,89.464,98.134,89.241z"/>
	<path fill-rule="evenodd" clip-rule="evenodd" d="M709.303,80.959c-1.872,2.388-5.399,3.164-9.556,3.33
		C701.329,81.619,705.793,81.753,709.303,80.959z"/>
	<path fill-rule="evenodd" clip-rule="evenodd" d="M37.349,90.864c8.88,3.42,16.93,11.658,29.717,8.398
		C57.06,105.866,43.239,96.481,37.349,90.864z"/>
	<path fill-rule="evenodd" clip-rule="evenodd" d="M26.959,91.805c3.225,1.824,6.859,3.227,8.887,6.28
		C32.226,96.668,28.491,95.369,26.959,91.805z"/>
	<path fill-rule="evenodd" clip-rule="evenodd" d="M727.745,83.91c-6.036,3.138-14.232,8.162-22.312,6.703
		C713.488,89.968,723.531,83.052,727.745,83.91z"/>
	<path fill-rule="evenodd" clip-rule="evenodd" d="M682.938,83.717c3.999-0.054,7.998-0.108,11.998-0.163
		C694.128,85.924,683.734,86.503,682.938,83.717z"/>
	<path fill-rule="evenodd" clip-rule="evenodd" d="M668.548,84.712c0.888,2.062,1.997,3.896,1.698,7.178
		c-1.377,1.976-4.8,1.955-7.189,0.897C662.269,87.829,661.304,84.606,668.548,84.712z"/>
	<path fill-rule="evenodd" clip-rule="evenodd" d="M17.425,96.734c5.393,3.111,11.666,5.317,16.129,9.383
		C27.3,103.892,21.109,101.602,17.425,96.734z"/>
	<path fill-rule="evenodd" clip-rule="evenodd" d="M733.389,87.034c-5.582,5.926-17.832,9.426-25.458,10.747
		C715.478,93.284,725.34,91.043,733.389,87.034z"/>
	<path fill-rule="evenodd" clip-rule="evenodd" d="M675.013,89.425c5.148-0.682,14.169,1.655,22.41,0.497
		C692.89,93.856,680.781,91.452,675.013,89.425z"/>
	<path fill-rule="evenodd" clip-rule="evenodd" d="M77.487,100.722c0.717,0.345,1.44,0.683,1.621,1.578
		c-6.196,11.315-29.557,12.103-36.787,1.298C52.055,109.801,70.79,109.592,77.487,100.722z"/>
	<path fill-rule="evenodd" clip-rule="evenodd" d="M96.729,103.661c-0.671,4.417-6.836,8.968-11.134,4.952
		C83.894,101.159,94.189,97.702,96.729,103.661z"/>
	<path fill-rule="evenodd" clip-rule="evenodd" fill="#F1E5C8" d="M414.356,102.558c-13.941-0.438-35.287-3.727-50.419-0.917
		c2.079-3.628,8.5-3.161,11.956-3.363C387.039,97.629,402.133,98.776,414.356,102.558z"/>
	<path fill-rule="evenodd" clip-rule="evenodd" d="M677.531,98.192c-0.959,2.486-2.581,4.328-4.723,5.665
		C661.688,101.338,673.186,87.961,677.531,98.192z"/>
	<path fill-rule="evenodd" clip-rule="evenodd" d="M735.875,93.401c2.046-0.063,0.983,0.582,0.822,1.589
		c-6.216,4.477-14.782,6.665-23.892,8.325C719.575,99.115,730.936,99.382,735.875,93.401z"/>
	<path fill-rule="evenodd" clip-rule="evenodd" d="M680.688,94.949c8.448,2.146,13.868,1.228,22.399-0.303
		C697.537,99.237,685.87,99.068,680.688,94.949z"/>
	<path fill-rule="evenodd" clip-rule="evenodd" d="M740.729,97.336c2.426,2.283-6.944,6.262-11.104,7.351
		C732.156,101.097,738.033,100.764,740.729,97.336z"/>
	<path fill-rule="evenodd" clip-rule="evenodd" fill="#F1E5C8" d="M104.816,109.953c2.762-0.599,2.907,2.766,1.654,3.978
		C105.274,113.267,104.723,111.941,104.816,109.953z"/>
	<path fill-rule="evenodd" clip-rule="evenodd" d="M20.831,111.891c6.753,2.794,14.936,4.121,20.907,7.718
		C33.547,118.292,25.621,116.703,20.831,111.891z"/>
	<path fill-rule="evenodd" clip-rule="evenodd" d="M674.527,112.635C670.024,91.037,693.788,114.876,674.527,112.635
		L674.527,112.635z"/>
	<path fill-rule="evenodd" clip-rule="evenodd" d="M687.996,102.851c9.62,3.728,25.091,10.005,36.042,2.712
		C721.09,117.002,692.188,110.96,687.996,102.851z"/>
	<path fill-rule="evenodd" clip-rule="evenodd" d="M20.107,117.501c4.338-0.389,11.915,2.889,16.075,5.383
		C29.302,122.654,24.996,119.778,20.107,117.501z"/>
	<path fill-rule="evenodd" clip-rule="evenodd" d="M745.756,114.07c-3.558,2.438-12.811,7.378-17.556,3.438
		C736.405,119.592,742.886,111.955,745.756,114.07z"/>
	<path fill-rule="evenodd" clip-rule="evenodd" d="M59.424,125.77c2.164-1.375,8.48-0.089,9.632,2.27
		C64.866,128.29,61.679,127.509,59.424,125.77z"/>
	<path fill-rule="evenodd" clip-rule="evenodd" d="M748.211,118.038c-3.784,3.948-9.974,5.555-17.523,5.838
		C735.598,121.453,744.188,118.727,748.211,118.038z"/>
	<path fill-rule="evenodd" clip-rule="evenodd" d="M58.646,127.38c-0.838,3.321,4.173,1.836,4.876,5.535
		c-2.977-0.997-6.68-1.247-8.843-3.081C54.986,128.029,59.066,129.896,58.646,127.38z"/>
	<path fill-rule="evenodd" clip-rule="evenodd" fill="#F1E5C8" d="M95.455,127.682c7.485,2.917,8.752,13.297,1.028,16.789
		c-3.719-1.586-4.866-5.814-8.897-7.081C88.748,132.732,93.731,131.794,95.455,127.682z"/>
	<path fill-rule="evenodd" clip-rule="evenodd" fill="#F1E5C8" d="M327.464,126.138c3.9,2.482,4.826,8.02,7.363,11.902
		c-1.491,1.706-4.58,1.857-5.546,4.075C324.289,139.476,326.932,131.862,327.464,126.138z"/>
	<path fill-rule="evenodd" clip-rule="evenodd" fill="#F1E5C8" d="M664.258,122.375c1.622,1.309,3.747,2.098,4.066,4.746
		c-1.667,0.483-2.258,2.014-4.779,1.665C664.002,126.863,664.646,125.121,664.258,122.375z"/>
	<path fill-rule="evenodd" clip-rule="evenodd" fill="#F1E5C8" d="M678.658,122.18c1.479,0.914,2.735,2.054,4.042,3.146
		c-0.483,2.952-0.555,6.302-2.291,8.033c-3.652-0.574-4.271-4.264-7.275-5.502C674.016,125.03,677.631,124.865,678.658,122.18z"/>
	<path fill-rule="evenodd" clip-rule="evenodd" d="M53.922,133.045c2.471,1.247,6.995,0.383,7.254,3.902
		C58.09,136.333,54.325,136.417,53.922,133.045z"/>
	<path fill-rule="evenodd" clip-rule="evenodd" d="M698.688,124.309c2.274,1.447,7.484-0.12,9.622,1.47
		C706.438,127.121,698.536,127.741,698.688,124.309z"/>
	<path fill-rule="evenodd" clip-rule="evenodd" fill="#F1E5C8" d="M45.199,138.764c-1.862-0.25-3.756-0.466-3.244-3.156
		C44.126,133.088,47.658,136.526,45.199,138.764z"/>
	<path fill-rule="evenodd" clip-rule="evenodd" fill="#F1E5C8" d="M438.724,129.431c2.982,1.803,2.397,7.272,2.562,11.967
		C438.695,139.51,437.599,132.519,438.724,129.431z"/>
	<path fill-rule="evenodd" clip-rule="evenodd" d="M741.108,125.334c-1.013,2.436-3.708,3.232-7.156,3.297
		C734.875,126.11,737.882,125.615,741.108,125.334z"/>
	<path fill-rule="evenodd" clip-rule="evenodd" fill="#F1E5C8" d="M354.836,138.57c-1.042,2.143-0.171,6.148-2.302,7.231
		c-3.811-0.328,0.912-3.783-0.086-6.399c-4.902,1.019-1.289,10.324-7.059,10.497c-1.082-4.566-4.104-7.139-5.751-11.123
		c1.75-3.823,5.464-5.733,9.502-7.33C350.6,134.271,351.958,137.201,354.836,138.57z"/>
	<path fill-rule="evenodd" clip-rule="evenodd" fill="#F1E5C8" d="M670.744,128.688c2.494,1.764,4.655,3.868,6.486,6.313
		c-1.088,4.205-5.982,4.702-7.891,8.108C659.764,140.593,665.39,131.481,670.744,128.688z"/>
	<path fill-rule="evenodd" clip-rule="evenodd" d="M702.742,128.254c2.712,0.188,4.611,1.21,8.012,0.692
		C710.926,131.712,701.686,131.645,702.742,128.254z"/>
	<path fill-rule="evenodd" clip-rule="evenodd" fill="#F1E5C8" d="M435.589,134.275c2.628,1.601,2.729,9.294,2.553,11.167
		c-2.178,0.781-6.16-2.592-7.276-5.502C434.415,139.974,433.294,135.461,435.589,134.275z"/>
	<path fill-rule="evenodd" clip-rule="evenodd" fill="#F1E5C8" d="M42.02,140.407c1.333-0.018,2.667-0.036,4-0.054
		C47.708,145.545,40.473,145.644,42.02,140.407z"/>
	<path fill-rule="evenodd" clip-rule="evenodd" fill="#F1E5C8" d="M418,135.313c3.664,0.833,5.396,3.649,8.076,5.491
		c-0.686,3.28-3.715,4.278-3.892,8.054c-4.767-0.509-6.342-4.298-8.108-7.891C414.799,138.512,417.937,138.407,418,135.313z"/>
	<path fill-rule="evenodd" clip-rule="evenodd" fill="#F1E5C8" d="M100.471,143.616c3.7-0.558,2.085,4.347,2.498,7.167
		c-2.872-0.023-2.812-3.059-4.854-3.935C97.85,144.748,101.209,146.177,100.471,143.616z"/>
	<path fill-rule="evenodd" clip-rule="evenodd" fill="#F1E5C8" d="M343.032,153.131c-3.085,0.155-3.66,2.753-7.167,2.497
		c-1.548-3.816-3.489-7.228-5.74-10.323C335.883,134.231,340.856,148.969,343.032,153.131z"/>
	<path fill-rule="evenodd" clip-rule="evenodd" fill="#F1E5C8" d="M678.886,138.979c4.085,2.667-1.594,7.358,0.173,12.8
		c-3.32-0.915-5.508-2.992-7.276-5.502C673.033,142.756,677.659,142.522,678.886,138.979z"/>
	<path fill-rule="evenodd" clip-rule="evenodd" fill="#F1E5C8" d="M429.32,143.96c2.96,0.744,4.01,3.45,6.465,4.713
		c-1.118,2.86-2.778,5.19-4.703,7.264c-3.676,0.263-4.085-2.832-6.455-3.912C425.726,148.882,427.923,146.812,429.32,143.96z"/>
	<path fill-rule="evenodd" clip-rule="evenodd" fill="#F1E5C8" d="M682.105,140.536c3.159,2.499,0.729,12.655-2.203,14.432
		C679.896,149.437,681.659,145.626,682.105,140.536z"/>
	<path fill-rule="evenodd" clip-rule="evenodd" fill="#F1E5C8" d="M326.136,146.159c3.379,3.286,4.913,8.47,7.373,12.701
		c-5.374,2.928-9.771,6.805-15.069,9.806C319.614,162.888,321.223,150.91,326.136,146.159z"/>
	<path fill-rule="evenodd" clip-rule="evenodd" fill="#F1E5C8" d="M105.596,167.549c-4.3,1.605-6.948,4.816-13.545,4.185
		c-1.813-4.086-5.168-8.791-4.184-13.545c0.368-1.781,5.855-8.017,6.291-8.086C100.341,149.117,105.227,159.284,105.596,167.549z"/>
	<path fill-rule="evenodd" clip-rule="evenodd" fill="#F1E5C8" d="M662.93,142.396c2.251,0.12,3.426,1.345,3.253,3.957
		c-1.437-0.083-1.674,1.003-3.188,0.844C662.973,145.596,662.95,143.996,662.93,142.396z"/>
	<path fill-rule="evenodd" clip-rule="evenodd" fill="#F1E5C8" d="M350.188,149.833c3.229,0.799-0.386,3.625-0.724,5.61
		C347.167,154.16,349.79,151.099,350.188,149.833z"/>
	<path fill-rule="evenodd" clip-rule="evenodd" fill="#F1E5C8" d="M677.513,155.8c-1.442,4.912-2.101,10.587-3.794,15.253
		c4.994-1.455,2.589-10.11,5.416-13.675c3.364,3.197-1.572,11.491-2.184,16.032c-7.63-0.812-11.17-5.827-16.918-8.572
		C658.937,150.604,672.085,142.889,677.513,155.8z"/>
	<path fill-rule="evenodd" clip-rule="evenodd" fill="#F1E5C8" d="M438.229,151.841c4.381,2.256,3.38,10.045,5.794,14.323
		c-3.409,1.082-6.439-4.551-9.687-6.27C434.32,155.933,437.436,155.018,438.229,151.841z"/>
	<path fill-rule="evenodd" clip-rule="evenodd" fill="#F1E5C8" d="M345.476,156.298c-0.367,3.853-1.733,6.734-3.07,9.643
		c-1.836-1.628-2.897-4.053-4.086-6.345C339.3,156.699,343.086,153.247,345.476,156.298z"/>
	<path fill-rule="evenodd" clip-rule="evenodd" fill="#F1E5C8" d="M422.262,154.458c3.088,0.611,4.208,3.246,6.464,4.713
		c-1.738,2.782-1.904,7.094-5.492,8.076C421.492,162.674,418.442,158.397,422.262,154.458z"/>
	<path fill-rule="evenodd" clip-rule="evenodd" fill="#F1E5C8" d="M443.081,155.776c0.8-0.011,1.6-0.022,2.399-0.033
		c0.201,6.014,3.207,9.143,3.407,15.156C443.917,168.977,445.435,160.388,443.081,155.776z"/>
	<path fill-rule="evenodd" clip-rule="evenodd" fill="#F1E5C8" d="M346.341,161.087c1.812,1.817-0.729,6.093-1.492,8.021
		C342.637,166.903,345.71,163.145,346.341,161.087z"/>
	<path fill-rule="evenodd" clip-rule="evenodd" d="M614.783,250.261c2.289,3.671-11.738,4.797-15.9,7.417
		c-28.691,3.141-71.396,8.649-95.238-1.91C536.835,262.646,586.282,261.621,614.783,250.261z"/>
	<path fill-rule="evenodd" clip-rule="evenodd" d="M688.654,33.233c1.333-2.366,5.468,1.658,3.243,3.156
		C690.724,35.431,690.781,33.209,688.654,33.233z"/>
	<path fill-rule="evenodd" clip-rule="evenodd" fill="#F1E5C8" d="M84.418,139.833c4.201,1.091,5.348,5.32,8.897,7.08
		c-1.091,4.201-5.32,5.348-7.081,8.897C86.92,152.31,83.841,143.132,84.418,139.833z"/>
	<path fill-rule="evenodd" clip-rule="evenodd" fill="#F1E5C8" d="M147.424,242.993c-4.779,1.139-9.517,2.317-15.979,1.817
		c-2.043-2.763,3.051-4.033,3.914-6.455c-3.378-3.543-8.16,3.78-11.124,5.752c-8.975-1.019-2.228-12.535,4.637-12.063
		c-0.143-2.287-3.357-1.419-5.621-1.524c-13.047-14.442-23.344-31.71-27.947-54.829c4.32-0.794,7.34-2.855,11.145-4.151
		c2.484,14.211,6.364,26.986,14.087,35.813c-2.977-8.839-10.851-19.668-11.654-33.446c5.341,3.821,2.114,4.537,4.152,11.146
		c7.11,23.057,29.561,46.514,55.134,53.66c19.417,5.426,46.847,6.864,67.294,6.289c47.995-1.352,70.117-32.261,80.621-73.102
		c8.058-1.894,11.813-7.975,19.058-10.659c11.041,10.382-3.038,27.681-9.868,39.339c-15.738,26.858-38.239,53.526-75.237,57.026
		c-38.763,3.666-72.932-2.077-102.59-13.012c16.836,10.58,43.546,14.19,69.813,15.056c42.596,1.404,74.917-9.588,93.961-33.278
		c10.614-16.509,21.747-32.513,29.705-51.608c-0.731,8.808-6.257,17.203-10.863,24.95c-17.359,29.202-39.757,58.971-81.572,61.913
		c-31.117,2.19-74.123-1.145-102.611-14.611C145.249,244.56,148.053,245.447,147.424,242.993z"/>
	<path fill-rule="evenodd" clip-rule="evenodd" d="M334.76,74.033c4.525-1.228,7.935-1.363,11.956-3.362
		c12.378-6.155,19.875-29.203,27.868-9.979c7.747-0.455,11.143-0.257,19.199-0.26c4.708-2.195,2.591-5.905,7.913-6.508
		c7.465-0.845,8.816,8.874,14.595,14.204c7.119,6.567,13.345,5.9,20.918,8.518c3.189-1.665,0.8-6.21,2.291-8.032
		c12.444-5.504,28.597-9.289,44.624-13.406c35.67-9.164,85.284-11.81,125.508-8.102c11.221,1.035,29.325,8.712,36.873,5.102
		c5.991-2.866,12.281-10.135,18.993-15.459c6.379-5.06,16.478-9.856,20.615-13.881c6.232-6.062,13.585-23.251,25.337-19.546
		c10.169,3.205,3.957,21.518,6.791,28.711c2.187,5.551,12.135,9.531,16.982,13.372c8.763,6.94,21.027,20.461,1.938,24.777
		c5.077,7.577,10.532,21.1,16.389,28.582c3.13,3.998,10.666,6.297,11.352,11.048c0.93,6.442-5.38,9.173-11.005,14.551
		c-6.431,6.146-7.524,13.375-18.215,13.849c-0.237,9.023-12.948,15.204-15.944,4.217c-16.034,3.225-19.861-6.09-26.572-12.442
		c-4.23,1.505-2.406,7.098-3.059,10.443c-1.855,9.495-5.456,22.075-7.556,32.906c-1.592,1.608-3.171,3.229-4.735,4.866
		c-5.321,23.238-12.764,44.414-28.829,57.198c2.179,4.445,6.724,7.091,4.175,12.745c-3.175,7.036-19.231,3.218-24.734,5.136
		c-10.048,3.503-17.703,8.499-27.058,10.768c-24.169,5.862-40.764,5.678-66.343,4.899c-73.509-2.233-105.273-65.189-124.182-130.334
		c7.648-7.459,23.704-22.901,5.999-29.685c-13.581-5.204-52.705-6.475-64.808,0.078c-12.434,6.732,2.665,20.359,8.401,29.49
		c-10.12,36.336-22.728,67.159-45.14,93.424c-20.888,24.478-48.69,36.178-95.54,34.898c-22.579-0.616-45.72-2.269-64.938-9.521
		c-5.401-2.039-10.099-6.987-16.119-8.583c-7.796-2.068-17.688,1.823-21.675-5.308c-0.22-5.214,1.23-8.802,3.848-11.254
		c-7.729-9.236-15.761-19.343-21.233-31.716c-4.339-9.813-4.17-22.841-12.4-29.437c-3.029-13.109-5.361-26.936-7.752-40.7
		c-7.047,5.762-13.437,18.824-26.214,13.957c-5.402,8.912-18.949,2.396-16.108-7.783c-21.833,0.803-24.514-18.071-37.166-26.7
		c8.585-15.852,23.672-25.378,31.434-42.031c-0.838-5.898-6.472-6.868-8.951-11.081c4.5-15.093,21.884-17.645,31.629-27.632
		c-1.079-9.509-7.487-26.824,3.61-28.853c11.746-2.148,20.242,15.89,28.324,23.619c4.688,4.484,13.298,8.868,19.383,13.339
		c7.101,5.218,13.852,11.934,19.373,12.54c5.425,0.595,13.541-1.787,20.766-2.682c55.867-6.924,114.853-0.655,160.197,13.031
		c9.589,2.895,18.309,8.054,28.118,8.42C333.921,70.569,333.644,73.017,334.76,74.033z M123.256,53.695
		c-6.168-1.28-7.792-6.268-12.129-9.437c-6.289-4.596-14.601-8.314-21.794-14.106c-5.75-4.63-10.352-13.489-16.259-18.982
		C67.817,6.281,59.325-0.833,53.798,5.83c1.971-0.132,3.853-0.173,4.811,0.734c5.648,9.547,11.93,17.91,10.823,31.058
		c-5.266-1.078-7.229-5.55-12.886-6.226c-10.583,8.12-24.624,12.873-31.673,24.432c23.247,11.279-8.904,33.628-15.392,45.014
		c2.019,4.705,3.167,10.313,1.006,15.188c5.599,6.52,10.404,14.043,19.405,14.939c11.333,1.128,13.572-9.397,23.858-10.725
		c-3.503-4.788-16.938-3.676-16.929-9.372c8.948,6.686,25.273,5.846,34.517,8.333c-2.092,3.274-7.523,0.869-10.399,0.141
		c-10.685,0.607-12.547,11.853-10.928,20.151c16.59,7.214,18.961-14.333,26.204-14.757c6.753-0.395,4.143,7.025,9.73,9.47
		c2.501-3.091,6.439-4.784,7.88-8.908c-3.2-5.908-9.971,1.082-14.453-3.805c-2.303-5.085,1.49-10.499,8.68-8.919
		c1.67,4.773,5.589,7.235,8.94,10.281c7.29-1.062,1.146-15.2,5.34-19.275c1.353,1.07-1.469,7.632,0.93,9.589
		c-0.695-25.488,19.722-35.633,31.305-51.631c-1.595-3.5-2.986-7.207-5.73-9.524C127.688,53.273,125.737,53.742,123.256,53.695z
		 M689.312,22.823c-4.209,4.618-14.451,8.846-22.992,15.513c-10.575,8.254-13.919,20.568-30.172,17.211
		c-1.452,1.217-1.949,3.366-3.945,4.055c9.268,21.03,33.549,26.632,32.001,58.774c1.053,2.703,4.478,2.97,4.887,6.334
		c6.295-2.557,9.44-8.178,15.047-11.406c2.33,1.662,3.783,4.225,4.897,7.135c-1.576,2.652-6.904,5.055-4.681,8.865
		c3.358-0.152,1.91-4.982,5.535-4.876c7.545,0.088,8.611,6.832,13.729,9.416c2.708-1.478,8.166-0.993,8.811,0.68
		c-2.112,2.074-4.226-0.425-7.199,0.098c2.16,4.943,8.102,1.639,13.631,2.215c2.756-13.131-11.262-19.108-20.247-18.128
		c-0.261-1.569,1.059-1.601,1.567-2.421c-2.231-1.492-7.122-0.252-8.044-3.091c8.135,2.277,20.596,2.274,28.831,2.01
		c-0.883,3.086-6.994,1.085-10.377,1.741c6.648,5.606,13.974,10.515,21.016,15.717c12.116,0.706,17.059-7.403,23.004-14.713
		c-2.357-3.21-2.477-11.927-0.206-15.199c-7.101-10.82-13.901-21.946-22.033-31.706c2.228-5.614,5.849-7.901,11.081-8.951
		c0.984-8.005-7.318-12.84-14.649-18.204c-11.935-8.733-17.828-11.801-28.041-2.82c-3.695-11.555,2.158-26.502,10.754-32.95
		C699.387,3.624,695.173,16.393,689.312,22.823z M706.977,27.384c1.576,0.218,1.572-1.102,2.378-1.632
		c1.058-0.005,0.751,1.393,1.622,1.579c0.237-1.085,1.118-1.543,0.757-3.211c-2.333,0.75-2.448,0.751-4.8,0.065
		C706.948,25.25,706.962,26.317,706.977,27.384z M174.377,47.402c-1.34,3.169-4.296,4.765-5.491,8.076
		c0.733,1.679,2.467,2.331,2.464,4.767c9.933,0.033,17.114-0.6,25.599-0.347c2.674-3.976,7.245-6.105,7.837-12.107
		C192.104,46.208,186.244,47.208,174.377,47.402z M168.843,52.278c0.291-2.084,2.354-2.445,2.334-4.833
		c-1.867,0.025-3.733,0.051-5.6,0.076C165.299,50.512,166.281,52.207,168.843,52.278z M208.787,47.736
		c1.754,4.686,3.408,9.476,7.362,11.901c2.338-3.067,6.569-5.505,4.659-10.464C218.336,47.411,211.896,46.232,208.787,47.736z
		 M153.698,56.483c1.657,1.271,2.069,3.822,3.275,5.556c8.712-0.42,8.607-8.329,4.616-13.664
		C156.509,48.694,155.99,53.452,153.698,56.483z M152.854,53.294c0.517-1.866,2.629-2.177,3.146-4.043
		c-1.866,0.025-3.733,0.051-5.6,0.076C150.693,51.189,151.267,52.762,152.854,53.294z M225.64,51.508
		c2.269,3.076,3.156,7.572,6.53,9.513c5.077-2.812,5.248-8.466,1.426-12.821C228.839,47.255,227.358,49.497,225.64,51.508z
		 M133.645,52.754c2.378,0.53,1.33,4.582,4.065,4.746c0.612-2.888,5.464-4.754,3.902-7.254
		C139.421,51.535,134.713,50.374,133.645,52.754z M138.542,59.889c0.364,1.519,1.751,1.987,1.654,3.979
		c3.059,0.083,5.825-0.12,7.178-1.698c-2.585-2.061,3.022-2.794,2.324-5.632c-2.155-1.841-1.362-6.711-5.687-6.324
		C143.522,54.737,139.608,55.927,138.542,59.889z M273.692,54.857c-11.175,0.086-26.201-8.992-32.82-1.155
		c1.272,3.56,4.258,5.357,4.929,9.534c8.589,1.449,17.045,3.035,25.664,4.453c2.587-1.692,3.584-4.932,5.502-7.276
		C276.625,57.792,274.58,56.918,273.692,54.857z M201.75,59.833c2.933-0.04,5.867-0.08,8.8-0.119
		c-1.342-2.677-1.685-6.379-4.898-7.135C205.467,55.883,199.95,57.102,201.75,59.833z M551.256,49.496
		c0.251,3.527,3.308,4.171,4.098,7.146c3.109-1.446,5.021-4.059,5.491-8.075C557.677,48.905,553.169,47.937,551.256,49.496z
		 M594.464,49.711c-8.216-0.74-18.362-0.727-27.22-1.231c-3.355,3.844-8.665,9.088-8.615,13.718
		c13.837-0.933,29.075,0.9,40.009,0.258c-0.062-1.375,0.588-2.059,1.567-2.421C599.932,54.908,595.886,53.658,594.464,49.711z
		 M536.867,50.491c-1.262,3.155,1.022,6.87,4.108,7.945c1.441-3.07,2.855-6.168,5.491-8.075
		C544.615,49.136,538.686,49.216,536.867,50.491z M219.36,60.394c3.002,0.427,2.425,0.564,6.411,0.713
		c-0.212-3.297-1.504-5.484-4.087-6.345C222.573,58.259,219.014,57.426,219.36,60.394z M521.68,51.497
		c0.363,3.412,3.594,3.878,4.097,7.146c3.378-1.185,5.38-3.71,5.491-8.075C527.377,50.834,526.794,51.394,521.68,51.497z
		 M597.686,51.268c1.627,1.032,2.742,2.589,3.266,4.756c2.859-0.375,3.813-2.603,3.923-5.654
		C601.662,51.292,598.669,47.848,597.686,51.268z M500.308,68.589c7.597-1.816,16.545-2.317,23.944-4.325
		c1.484-4.8-3.834-8.088-5.763-11.924C506.068,51.565,505.022,61.862,500.308,68.589z M542.63,62.415
		c2.64,1.375,8.114-0.229,11.188-0.952c1.203-3.451-3.157-5.877-4.918-8.734C546.842,55.989,544.114,58.597,542.63,62.415z
		 M604.216,60.78c2.155,1.57,3.329,4.149,7.253,3.902c1.324-1.868,2.872-3.52,3.925-5.653c-1.729-2.818-2.197-6.935-6.497-7.113
		C608.347,55.854,604.568,56.65,604.216,60.78z M616.14,55.018c2.004,0.109,2.488-1.263,3.168-2.443
		c-0.939-0.659-2.16-1.026-4.013-0.747C615.255,53.223,615.509,54.314,616.14,55.018z M280.935,57.959
		c1.59,5.938,3.799,11.237,8.195,14.291C298.896,67.5,290.055,54.461,280.935,57.959z M490.61,61.52
		c1.217,2.264,3.416,3.52,4.087,6.345c2.873-3.269,10.216-9.673,7.016-13.696C497.762,56.375,490.42,55.282,490.61,61.52z
		 M236.191,62.566c1.6-0.021,3.2-0.043,4.8-0.065c-0.487-2.204-0.908-4.475-4.054-3.945C237.291,60.478,235.5,60.314,236.191,62.566
		z M364.931,56.821c-7.671,10.165-15.834,19.851-33.328,20.455c0.814,14.573,4.4,26.3,10.876,35.057
		c3.111-5.965-7.894-15.455-1.86-19.177c0.36,5.578,2.728,9.093,4.184,13.545c4.699,1.167,7.2-0.405,8.745-4.119
		c-6.828-0.022-8.781-9.351-8.195-14.291c4.22,1.883,1.925,10.458,7.351,11.102c1.681-3.932,7.024,0.562,7.946-4.109
		c-6.652,0.875-10.401-5.519-9.73-9.469c3.861,1.71,3.422,7.84,10.487,6.258c-0.649-5.072,1.69-2.098,3.978-1.654
		c0.349-2.814,0.89-2.643-0.065-4.8c-1.91,0.51-3.634,1.199-6.389,0.886c-1.898-1.325-6.243-4.358-4.097-7.145
		c3.145,0.554,2.814,4.679,6.465,4.713c2.456-1.03,6.265-0.744,6.345-4.086c-2.459-1.298-8.178-5.921-4.908-7.935
		c3.552-0.676,1.634,4.27,4.854,3.935c2.248-0.18,3.389-1.438,3.146-4.043c-2.695-1.556-5.753-2.741-5.697-7.123
		c2.995,0.051,4.269,4.755,7.232,2.302c1.949-3.574-5.15-6.061-0.119-8.799C368.053,60.122,368.535,57.274,364.931,56.821z
		 M631.35,55.612c0.215-2.113-1.698-2.041-3.232-2.356C628.2,55.41,629.998,57.076,631.35,55.612z M396.27,66.798
		c4.023,0.871,3.858-5.143,7.168-2.497c-0.602,4.087-8.235,4.867-4.66,10.464c4.117,1.078,4.95-5.137,7.967-2.508
		c-0.122,4.09-4.93,3.622-6.312,6.487c1.734-0.158,0.401,2.832,0.854,3.989c3.677,2.449,9.844-4.546,11.988-0.962
		c-0.748,3.219-5.207,2.826-7.945,4.108c-0.096,1.991,1.291,2.459,1.654,3.978c7.035,0.794,6.888-5.401,11.913-6.562
		c-2.123,3.722-3.209,8.455-8.68,8.918c-2.115,9.215,12.68,5.491,7.987-0.909c4.899,3.06,3.009-4.628,6.368-2.486
		c-2.125,6.398-4.092,9.004-7.804,14.508c1.503,0.618,2.947,1.297,4.82,1.535c5.831-2.481,5.589-10.875,9.394-15.329
		c1.49,7.855-4.236,15.285-7.718,20.907c2.429,1.747,2.804,0.905,6.41,0.713c4.233-9.301,7.277-19.758,8.365-32.117
		c-18.039-0.931-28.564-9.584-35.501-21.923C396.904,56.891,397.03,62.275,396.27,66.798z M625.079,65.298
		c0.651-2.524,2.979-3.417,3.113-6.443c-2.541-0.902-1.526-5.46-5.665-4.724C619.556,58.354,620.311,63.221,625.079,65.298z
		 M173.794,63.412c6.713-1.097,17.545,1.814,21.577-1.893C187.037,62.497,179.312,59.439,173.794,63.412z M529.041,63.399
		c2.765,1.369,5.509-0.946,8.011,0.692c0.375-0.951,0.828-1.825,1.567-2.422c-1.33-2.418-1.945-5.572-5.677-5.524
		C532.673,59.566,529.457,60.119,529.041,63.399z M163.384,62.753c-0.719,2.901,3.166,1.073,4.821,1.535
		C167.979,61.316,165.338,62.084,163.384,62.753z M212.182,62.092c-2.895-1.623-8.657-0.298-12.811-0.627
		C201.043,63.796,210.327,65.141,212.182,62.092z M227.413,64.286c-1.212-2.81-6.128-1.814-9.632-2.27
		C218.429,65.406,223.698,64.047,227.413,64.286z M475.476,66.525c2.054,0.595,1.412,3.958,4.056,3.946
		c2.491-3.364,5.428-6.293,6.247-11.287C480.747,57.132,475.978,61.594,475.476,66.525z M131.473,69.586
		c1.94,1.795,2.921-1.796,6.389-0.887c-0.177-2.523-0.627-4.764-3.265-4.757C134.48,66.724,131.808,67.019,131.473,69.586z
		 M147.417,65.37c1.243,1.665,6.579,0.666,6.378-1.687C151.797,64.369,146.886,62.221,147.417,65.37z M234.624,64.988
		c2.217,0.378,7.437,2.758,8-0.108C240.114,64.217,235.675,62.597,234.624,64.988z M298.61,63.321
		c-0.79,4.76,5.227,9.109,6.595,14.313c3.068-1.75,4.771-4.83,6.291-8.086C309.225,65.794,304.475,60.728,298.61,63.321z
		 M274.676,68.446c2.151,0.764,4.241,1.591,7.221,1.502c-0.528-2.971-1.589-5.397-4.086-6.346
		C277.342,65.778,274.496,65.639,274.676,68.446z M374.768,74.291c6.964,0.145,15.041-0.854,20.811,0.518
		c1.81-3.661-2.378-7.417-1.764-11.977c-6.133,0.083-12.266,0.166-18.399,0.249C373.11,67.792,375.803,70.726,374.768,74.291z
		 M269.887,69.311c-7.024-1.434-13.7-3.226-21.653-3.707C253.131,68.347,265.163,71.722,269.887,69.311z M457.066,65.975
		c0.992,4.657,4.144,7.098,6.541,10.313c2.141-4.495,6.21-7.113,7.026-12.897C466.302,61.53,461.271,65.147,457.066,65.975z
		 M483.552,72.017c3.334-0.965,8.1-0.538,9.557-3.33c-2.508-0.669-2.678-3.738-4.866-4.735
		C487.508,67.446,484.426,68.657,483.552,72.017z M111.064,98.667c-5.549,16.239-1.347,43.593,0.781,57.597
		c8.462,55.707,34.98,80.287,90.755,84.381c37.488,2.752,67.562-1.1,86.146-19.57c10.019-9.956,17.423-27.888,24.159-47.533
		c6.377-18.596,13.074-37.808,12.051-55.371c-2.103-36.137-43.819-40.591-79.024-45.335c-24.517-3.304-44.747-4.696-72.05-3.024
		C143.199,71.69,119.338,74.454,111.064,98.667z M545.073,65.582c1.4,1.376,4.958,0.819,5.589-0.875
		C548.154,64.7,546.222,63.189,545.073,65.582z M595.491,66.499c-9.465-4.407-20.533-2.164-33.641-2.744
		C567.505,68.301,584.762,64.817,595.491,66.499z M617.081,65.407c2.002,0.072,2.525,1.493,3.188-0.844
		c-1.59,0.012-1.047-2.168-3.223-1.556C617.059,63.807,617.069,64.606,617.081,65.407z M323.766,89.384
		c-6.214-2.807-6.291-11.921-11.416-15.848c-0.722,2.455-3.859,2.56-3.924,5.654c6.113,4.584,14.712,10.77,15.449,18.192
		c-4.972-5.17-9.382-15.229-17.006-14.971c10.565,9.152,20.59,18.859,21.319,38.116c4.231,3.764,6.646,9.393,9.005,15.08
		c3.886-1.218,5.44-4.706,9.524-5.73c-9.562-16.13-17.789-33.633-19.19-58.148c-3.891-1.409-6.888-3.737-12.053-3.837
		C316.764,75.784,326.075,83.091,323.766,89.384z M627.556,70.865c3.572,0.655,7.111,1.346,9.644,3.07
		c-0.074-2.848-3.275-8.912-7.342-10.302C628.515,67.97,631.506,68.088,627.556,70.865z M292.34,73.007
		c1.872,1.05,4.561,1.263,6.432,2.313c-0.244-2.994-1.325-5.127-3.287-6.356C294.3,70.179,293.125,71.403,292.34,73.007z
		 M284.341,73.116c-2.865-1.923-7.496-2.032-11.244-3.048C274.349,73.128,281.243,74.649,284.341,73.116z M441.933,70.98
		c-0.442,24.192-10.731,45.23-20.754,62.689c1.765,1.973,4.022,3.438,6.466,4.713c6.515-5.237,7.896-15.47,10.063-24.94
		c1.084,3.641-1.876,8.294,0.918,8.789c1.511-18.265,10.853-28.907,21.079-38.691c-3.203-1.798-6.362,6.76-9.534,4.93
		c2.216-4.948,8.563-5.875,11.869-9.762C458.138,70.855,451.92,64.389,441.933,70.98z M498.751,71.811
		c8.272-0.895,16.939-1.406,23.145-4.314C515.767,67.417,503.813,68.244,498.751,71.811z M599.503,67.245
		c3.212-0.922,6.205,2.522,7.188-0.898C605.387,65.31,599.62,64.715,599.503,67.245z M469.195,75.412
		c1.787,1.163,5.439-1.135,7.979-1.708c-0.638-2.589-1.396-5.055-4.864-4.735C472.519,72.33,469.314,72.37,469.195,75.412z
		 M621.934,69.341c-0.542-2.688-4.344-2.026-7.232-2.302C615.216,69.755,619.393,68.709,621.934,69.341z M482.006,76.038
		c3.433-1.396,9.673-0.059,10.346-4.141C488.971,73.343,483.314,72.574,482.006,76.038z M498.838,78.21
		c-17.145,3.331-33.175,6.715-42.202,14.974c-13.808,12.629-12.768,30.883-8.929,49.728c9.787,48.036,24.354,93.494,71.763,99.842
		c32.563,4.357,80.91,0.967,104.599-15.819c19.792-14.025,30.055-40.539,34.255-70.074c2.213-15.552,5.05-36.422,1.696-52.03
		c-7.998-37.227-76.166-34.738-108.46-32.935C532.785,72.944,516.733,74.733,498.838,78.21z M301.227,79.288
		c-0.724-3.334-7.404-4.8-10.443-3.059C294.021,77.499,296.961,79.074,301.227,79.288z M373.212,77.512
		c-2.608,7.528-5.749,14.855-8.529,20.119c13.957-0.977,28.544-1.036,44.02,1.003c-1.335-7.009-5.995-10.604-9.807-15.069
		c-0.025-1.867-0.05-3.733-0.075-5.6C390.838,77.246,382.164,77.235,373.212,77.512z M466.861,80.243
		c3.671-0.374,7.084-0.999,8.756-3.318C472.417,77.757,467.437,76.858,466.861,80.243z M375.894,98.278
		c-3.457,0.202-9.877-0.265-11.956,3.363c15.132-2.81,36.478,0.479,50.419,0.917C402.133,98.776,387.039,97.629,375.894,98.278z
		 M106.47,113.931c1.252-1.212,1.108-4.577-1.654-3.978C104.723,111.941,105.274,113.267,106.47,113.931z M87.585,137.39
		c4.031,1.266,5.178,5.495,8.897,7.081c7.724-3.492,6.457-13.872-1.028-16.789C93.731,131.794,88.748,132.732,87.585,137.39z
		 M329.281,142.115c0.966-2.217,4.055-2.369,5.546-4.075c-2.537-3.882-3.462-9.42-7.363-11.902
		C326.932,131.862,324.289,139.476,329.281,142.115z M663.545,128.785c2.521,0.35,3.112-1.181,4.779-1.665
		c-0.319-2.648-2.444-3.438-4.066-4.746C664.646,125.121,664.002,126.863,663.545,128.785z M673.134,127.856
		c3.004,1.238,3.623,4.928,7.275,5.502c1.736-1.73,1.808-5.081,2.291-8.033c-1.307-1.091-2.562-2.232-4.042-3.146
		C677.631,124.865,674.016,125.03,673.134,127.856z M41.955,135.607c-0.513,2.69,1.382,2.906,3.244,3.156
		C47.658,136.526,44.126,133.088,41.955,135.607z M441.286,141.398c-0.165-4.695,0.42-10.165-2.562-11.967
		C437.599,132.519,438.695,139.51,441.286,141.398z M349.14,131.445c-4.038,1.597-7.752,3.507-9.502,7.33
		c1.647,3.984,4.669,6.557,5.751,11.123c5.77-0.173,2.157-9.478,7.059-10.497c0.999,2.616-3.724,6.071,0.086,6.399
		c2.131-1.083,1.26-5.089,2.302-7.231C351.958,137.201,350.6,134.271,349.14,131.445z M669.34,143.109
		c1.908-3.406,6.803-3.903,7.891-8.108c-1.831-2.445-3.992-4.549-6.486-6.313C665.39,131.481,659.764,140.593,669.34,143.109z
		 M430.865,139.939c1.116,2.91,5.099,6.283,7.276,5.502c0.176-1.873,0.075-9.566-2.553-11.167
		C433.294,135.461,434.415,139.974,430.865,139.939z M46.02,140.353c-1.333,0.018-2.667,0.036-4,0.054
		C40.473,145.644,47.708,145.545,46.02,140.353z M86.235,155.81c1.76-3.549,5.989-4.696,7.081-8.897
		c-3.549-1.76-4.697-5.989-8.897-7.08C83.841,143.132,86.92,152.31,86.235,155.81z M414.076,140.967
		c1.767,3.593,3.342,7.382,8.108,7.891c0.177-3.775,3.206-4.774,3.892-8.054c-2.681-1.842-4.412-4.659-8.076-5.491
		C417.937,138.407,414.799,138.512,414.076,140.967z M98.115,146.848c2.042,0.876,1.982,3.912,4.854,3.935
		c-0.413-2.821,1.203-7.725-2.498-7.167C101.209,146.177,97.85,144.748,98.115,146.848z M330.125,145.305
		c2.251,3.095,4.192,6.507,5.74,10.323c3.508,0.256,4.083-2.342,7.167-2.497C340.856,148.969,335.883,134.231,330.125,145.305z
		 M671.782,146.276c1.769,2.51,3.956,4.588,7.276,5.502c-1.767-5.441,3.912-10.133-0.173-12.8
		C677.659,142.522,673.033,142.756,671.782,146.276z M424.627,152.026c2.37,1.081,2.779,4.175,6.455,3.912
		c1.925-2.074,3.585-4.404,4.703-7.264c-2.455-1.264-3.505-3.969-6.465-4.713C427.923,146.812,425.726,148.882,424.627,152.026z
		 M679.902,154.968c2.932-1.777,5.362-11.933,2.203-14.432C681.659,145.626,679.896,149.437,679.902,154.968z M318.439,168.666
		c5.298-3.001,9.695-6.878,15.069-9.806c-2.46-4.231-3.994-9.415-7.373-12.701C321.223,150.91,319.614,162.888,318.439,168.666z
		 M94.158,150.102c-0.436,0.069-5.923,6.306-6.291,8.086c-0.984,4.754,2.371,9.459,4.184,13.545
		c6.597,0.632,9.245-2.58,13.545-4.185C105.227,159.284,100.341,149.117,94.158,150.102z M662.994,147.196
		c1.515,0.159,1.752-0.926,3.188-0.844c0.173-2.611-1.002-3.837-3.253-3.957C662.95,143.996,662.973,145.596,662.994,147.196z
		 M349.464,155.444c0.338-1.985,3.954-4.812,0.724-5.61C349.79,151.099,347.167,154.16,349.464,155.444z M660.033,164.838
		c5.748,2.745,9.288,7.759,16.918,8.572c0.611-4.541,5.548-12.835,2.184-16.032c-2.827,3.565-0.422,12.221-5.416,13.675
		c1.693-4.667,2.352-10.342,3.794-15.253C672.085,142.889,658.937,150.604,660.033,164.838z M434.336,159.895
		c3.247,1.719,6.277,7.352,9.687,6.27c-2.414-4.278-1.413-12.067-5.794-14.323C437.436,155.018,434.32,155.933,434.336,159.895z
		 M338.319,159.596c1.189,2.292,2.25,4.717,4.086,6.345c1.337-2.909,2.703-5.79,3.07-9.643
		C343.086,153.247,339.3,156.699,338.319,159.596z M423.233,167.247c3.588-0.982,3.754-5.294,5.492-8.076
		c-2.256-1.467-3.376-4.102-6.464-4.713C418.442,158.397,421.492,162.674,423.233,167.247z M448.888,170.899
		c-0.2-6.013-3.206-9.142-3.407-15.156c-0.8,0.011-1.6,0.022-2.399,0.033C445.435,160.388,443.917,168.977,448.888,170.899z
		 M145.878,247.014c28.489,13.467,71.495,16.802,102.611,14.611c41.815-2.942,64.213-32.711,81.572-61.913
		c4.606-7.747,10.132-16.142,10.863-24.95c-7.958,19.096-19.09,35.1-29.705,51.608c-19.045,23.69-51.366,34.683-93.961,33.278
		c-26.267-0.865-52.977-4.476-69.813-15.056c29.658,10.935,63.827,16.678,102.59,13.012c36.999-3.5,59.499-30.168,75.237-57.026
		c6.83-11.658,20.909-28.958,9.868-39.339c-7.245,2.685-11,8.766-19.058,10.659c-10.504,40.841-32.625,71.75-80.621,73.102
		c-20.447,0.575-47.876-0.863-67.294-6.289c-25.573-7.146-48.023-30.604-55.134-53.66c-2.038-6.609,1.189-7.325-4.152-11.146
		c0.803,13.778,8.677,24.607,11.654,33.446c-7.723-8.827-11.603-21.602-14.087-35.813c-3.805,1.296-6.825,3.356-11.145,4.151
		c4.603,23.119,14.9,40.387,27.947,54.829c2.264,0.105,5.479-0.763,5.621,1.524c-6.865-0.472-13.612,11.045-4.637,12.063
		c2.964-1.972,7.745-9.295,11.124-5.752c-0.862,2.422-5.957,3.692-3.914,6.455c6.461,0.5,11.2-0.679,15.979-1.817
		C148.053,245.447,145.249,244.56,145.878,247.014z M344.849,169.108c0.764-1.928,3.305-6.204,1.492-8.021
		C345.71,163.145,342.637,166.903,344.849,169.108z M424.077,170.436c21.075,43.485,40.276,85.068,94.063,92.338
		c32.317,4.368,79.053,0.208,105.443-12.632c1.011-1.998-1.838-3.856-0.055-3.999c2.217,3.13,8.28,2.308,13.632,2.216
		c0.447-4.786-6.125-2.357-6.486-6.312c8.593-1.529,8.926,5.429,15.285,6.193c4.953-1.41,2.888-9.102,0.639-12.011
		c-4.324-1.345-7.764,2.008-8.833-2.279c2.358-0.427,5.252-0.537,7.2-0.099c14.573-13.709,23.655-32.762,27.229-57.177
		c-7.528,18.461-10.73,41.132-26.505,51.566c11.788-14.053,19.434-32.135,24.084-53.133c-4.813-0.732-6.979-4.185-10.486-6.259
		c-5.035,46.472-40.02,73.384-90.966,77.243c-32.243,2.441-66.57,0.875-88.256-18.007c-7.033-6.126-14.033-15.053-17.913-22.96
		c-4.625-9.429-6.392-20.523-13.211-30.226c4.528,22.925,18.139,40.842,28.746,54.818c-15.162-13.892-25.606-32.63-31.168-56.386
		c-4.299-4.505-9.793-7.78-14.562-11.804C429.425,164.588,429.204,169.899,424.077,170.436z"/>
	<path fill-rule="evenodd" clip-rule="evenodd" fill="#F1E5C8" d="M128.834,52.02c2.745,2.317,4.136,6.024,5.73,9.524
		c-11.583,15.998-32,26.143-31.305,51.631c-2.398-1.957,0.423-8.519-0.93-9.589c-4.194,4.075,1.95,18.213-5.34,19.275
		c-3.351-3.046-7.271-5.507-8.94-10.281c-7.19-1.579-10.983,3.834-8.68,8.919c4.482,4.886,11.253-2.103,14.453,3.805
		c-1.44,4.124-5.379,5.816-7.88,8.908c-5.587-2.444-2.977-9.864-9.73-9.47c-7.242,0.424-9.614,21.972-26.204,14.757
		c-1.619-8.298,0.243-19.544,10.928-20.151c2.876,0.728,8.308,3.133,10.399-0.141c-9.244-2.488-25.569-1.647-34.517-8.333
		c-0.009,5.695,13.426,4.583,16.929,9.372c-10.286,1.328-12.525,11.853-23.858,10.725c-9-0.896-13.806-8.419-19.405-14.939
		c2.161-4.875,1.013-10.484-1.006-15.188c6.488-11.386,38.639-33.735,15.392-45.014c7.049-11.56,21.09-16.312,31.673-24.432
		c5.657,0.676,7.621,5.147,12.886,6.226c1.107-13.147-5.175-21.51-10.823-31.058c-0.958-0.908-2.839-0.866-4.811-0.734
		c5.527-6.664,14.019,0.451,19.275,5.339c5.908,5.494,10.509,14.352,16.259,18.982c7.193,5.792,15.505,9.511,21.794,14.106
		c4.336,3.169,5.961,8.157,12.129,9.437C125.737,53.742,127.688,53.273,128.834,52.02z M72.631,37.579
		c4.806-0.323,7.489-2.71,9.523-5.73c-2.442-2.146-3.138,2.195-5.567,2.476c-0.079-1.393,0.145-2.491,0.757-3.21
		C74.31,31.846,74.371,35.588,72.631,37.579z M57.497,42.584c-0.187-2.287-4.773-4.226-6.433-2.313
		C53.326,40.922,54.382,42.811,57.497,42.584z M55.119,44.217c-2.923-0.782-4.982-2.452-8.043-3.092
		C47.498,44.087,54.318,46.762,55.119,44.217z M47.951,46.715c-0.461-2.5-3.022-2.842-5.643-3.124
		C42.459,46.41,45.927,45.82,47.951,46.715z M87.149,46.184c-0.063-2.637-2.316-3.027-4.843-3.135
		C82.072,45.994,85.253,45.428,87.149,46.184z M102.598,64.376C88.984,65.731,80.919,54.892,71.194,49.6
		C75.74,56.249,97.004,71.007,102.598,64.376z M82.415,51.048c11.052,2.241,25.032,13.271,36.896,6.701
		C104.997,61.646,92.223,49.053,82.415,51.048z M98.414,50.831c4.051,0.99,9.997,4.309,14.432,2.205
		C108.484,52.527,100.77,48.148,98.414,50.831z M67.455,68.854c-7-6.941-23.367-30.769-32.129-9.166
		c5.794-1.246,3.635-4.881,8.724-5.719c11.364-1.871,14.514,12.679,21.027,16.518c1.431,0.843,7.295,5.237,8.788-0.919
		C72.307,67.655,69.71,70.779,67.455,68.854z M78.632,67.102c6.047,3.548,12.683,9.124,18.507,7.75
		C83.788,70.454,72.618,59.494,61.67,55.33C66.337,59.223,72.593,63.559,78.632,67.102z M41.91,73.2
		c-0.59-5.864,0.654-12.18,7.059-10.497c4.289,1.126,1.438,5.786,5.708,7.924C58.695,55.697,32.65,58.143,41.91,73.2z M49.12,73.902
		c1.626-1.311,1.801-4.036,1.502-7.221C44.718,58.823,39.311,74.761,49.12,73.902z M114.619,65.814
		c-3.479,0.061-7.194,0.362-9.61-0.67C105.248,69.208,113.58,69.119,114.619,65.814z M103.604,79.565
		c3.338-0.226,3.795,1.25,6.399-0.087c0.229-1.881,1.223-3.02,0.724-5.61C107.396,69.084,100.406,73.88,103.604,79.565z
		 M91.626,81.327c-12.248,1.229-20.252-1.901-27.285-6.031C68.417,81.77,83.695,86.528,91.626,81.327z M98.102,86.84
		c2.991,3.166,7.954,2.158,8.767-2.519C105.875,78.587,96.735,79.689,98.102,86.84z M30.884,86.151
		c0.081-2.517-2.089-2.721-4.043-3.145C26.32,85.974,29.672,84.962,30.884,86.151z M86.135,89.403
		c-12.734,1.188-19.033-4.237-28.885-6.01C63.989,87.613,78.32,94.032,86.135,89.403z M74.179,92.765
		c-11.873,3.158-21.536-5.517-29.685-5.998C52.129,90.154,64.652,99.155,74.179,92.765z M91.821,95.727
		c1.131,2.083,2.983,3.424,6.443,3.113c3.237-1.323,3.12-8.42-0.13-9.599C94.039,89.464,91.934,91.626,91.821,95.727z
		 M67.066,99.262c-12.787,3.26-20.837-4.978-29.717-8.398C43.239,96.481,57.06,105.866,67.066,99.262z M35.846,98.085
		c-2.028-3.053-5.662-4.457-8.887-6.28C28.491,95.369,32.226,96.668,35.846,98.085z M33.555,106.118
		c-4.464-4.066-10.737-6.272-16.129-9.383C21.109,101.602,27.3,103.892,33.555,106.118z M42.322,103.598
		c7.229,10.805,30.59,10.017,36.787-1.298c-0.181-0.896-0.904-1.233-1.621-1.578C70.79,109.592,52.055,109.801,42.322,103.598z
		 M85.596,108.613c4.298,4.017,10.463-0.534,11.134-4.952C94.189,97.702,83.894,101.159,85.596,108.613z M41.738,119.608
		c-5.972-3.597-14.154-4.923-20.907-7.718C25.621,116.703,33.547,118.292,41.738,119.608z M36.182,122.884
		c-4.161-2.494-11.737-5.771-16.075-5.383C24.996,119.778,29.302,122.654,36.182,122.884z M69.056,128.039
		c-1.152-2.358-7.468-3.645-9.632-2.27C61.679,127.509,64.866,128.29,69.056,128.039z M54.679,129.834
		c2.163,1.833,5.866,2.083,8.843,3.081c-0.703-3.699-5.714-2.213-4.876-5.535C59.066,129.896,54.986,128.029,54.679,129.834z
		 M61.176,136.947c-0.259-3.519-4.783-2.655-7.254-3.902C54.325,136.417,58.09,136.333,61.176,136.947z"/>
	<path fill-rule="evenodd" clip-rule="evenodd" fill="#F1E5C8" d="M711.516,8.12c-8.596,6.448-14.449,21.396-10.754,32.95
		c10.213-8.981,16.106-5.913,28.041,2.82c7.331,5.364,15.634,10.199,14.649,18.204c-5.232,1.05-8.854,3.337-11.081,8.951
		c8.132,9.76,14.933,20.886,22.033,31.706c-2.271,3.272-2.151,11.989,0.206,15.199c-5.945,7.31-10.888,15.419-23.004,14.713
		c-7.042-5.202-14.367-10.111-21.016-15.717c3.383-0.655,9.494,1.346,10.377-1.741c-8.235,0.264-20.696,0.267-28.831-2.01
		c0.922,2.839,5.812,1.599,8.044,3.091c-0.509,0.821-1.828,0.853-1.567,2.421c8.985-0.98,23.003,4.997,20.247,18.128
		c-5.529-0.576-11.471,2.728-13.631-2.215c2.974-0.523,5.087,1.977,7.199-0.098c-0.645-1.673-6.103-2.158-8.811-0.68
		c-5.117-2.583-6.184-9.328-13.729-9.416c-3.625-0.106-2.177,4.724-5.535,4.876c-2.224-3.81,3.104-6.212,4.681-8.865
		c-1.114-2.911-2.567-5.474-4.897-7.135c-5.606,3.228-8.752,8.849-15.047,11.406c-0.409-3.365-3.834-3.632-4.887-6.334
		c1.548-32.142-22.733-37.744-32.001-58.774c1.996-0.689,2.493-2.837,3.945-4.055c16.253,3.357,19.597-8.957,30.172-17.211
		c8.541-6.667,18.783-10.895,22.992-15.513C695.173,16.393,699.387,3.624,711.516,8.12z M695.118,37.946
		c1.121-3.952,2.796-9.367,1.438-12.021C696.387,30.069,691.187,34.68,695.118,37.946z M691.897,36.389
		c2.225-1.498-1.91-5.522-3.243-3.156C690.781,33.209,690.724,35.431,691.897,36.389z M711.992,43.318
		c0.611-1.774,3.746-1.09,3.958-3.254C713.177,39.27,709.904,41.99,711.992,43.318z M716.025,45.664
		c2.773-0.196,6.153,0.2,6.368-2.487C719.539,43.294,716.905,43.625,716.025,45.664z M671.271,49.47
		c2.495,0.533,12.457,1.77,14.367-2.595C681.539,48.412,675.269,47.835,671.271,49.47z M721.689,50.387
		c4.208-0.818,8.327,0.346,9.578-1.729C728.551,47.666,722.543,47.275,721.689,50.387z M681.779,57.329
		c4.813,0.08,13.169-2.875,15.09-8.206C692.536,52.538,687.021,54.799,681.779,57.329z M660.947,55.211
		c2.831,0.102,7.518,2.502,9.61,0.67C667.938,55.379,661.88,52.361,660.947,55.211z M726.556,55.123
		c3.583,1.703,6.991-0.878,11.21,0.648C736.007,52.432,729.337,53.473,726.556,55.123z M698.773,71.501
		c-2.332,1.414-7.539,0.03-7.957,3.308c18.044,3.014,22.862-28.57,39.047-11.731C724.455,44.289,705.107,63.518,698.773,71.501z
		 M691.497,65.999c5.895-0.935,15.466-6.4,12.659-10.573C702.009,60.966,695.345,62.111,691.497,65.999z M662.666,63.989
		c11.268,1.561,19.915,0.105,29.577-2c-0.371-2.945,6.368-3.924,2.324-5.633C689.879,64.726,670.456,61.033,662.666,63.989z
		 M656.213,60.076c-4.262-0.218-7.76-1.219-12.021-1.437C645.406,61.439,654.683,62.792,656.213,60.076z M710.795,72.938
		c4.157-3.562,4.369-10.121,10.269-9.741c4.401,0.284,4.337,5.002,8.107,7.892C731.65,57.872,709.037,58.401,710.795,72.938z
		 M686.018,74.874c-1.066-4.505-5.332-1.284-8.021-1.492c-9.413-0.727-19.202-4.533-26.506-7.642
		c-0.535,0.007-1.066,0.014-1.601,0.021C660.268,71.868,670.145,75.972,686.018,74.874z M715.528,68.073
		c-0.688,6.596,2.649,8.869,8.098,7.091c1.997-2.224,1.553-5.607,0.681-8.811C721.128,64.778,717.572,66.298,715.528,68.073z
		 M686.72,67.664c-3.317-0.754-11.813,0.891-14.41-0.605C673.449,70.131,684.849,70.682,686.72,67.664z M658.052,77.653
		c-2.564,1.367-0.858,4.358,0.086,6.4c2.756,0.313,4.479-0.376,6.39-0.886c-0.145-1.983-0.202-3.88,1.545-4.021
		c2.379-0.065,6.428,2.294,7.188-0.898c-8.464-0.225-14.554-2.889-20.874-5.318C652.602,76.224,657.393,74.816,658.052,77.653z
		 M699.747,84.29c4.156-0.166,7.684-0.942,9.556-3.33C705.793,81.753,701.329,81.619,699.747,84.29z M705.433,90.613
		c8.08,1.459,16.276-3.565,22.312-6.703C723.531,83.052,713.488,89.968,705.433,90.613z M694.936,83.554
		c-4,0.054-7.999,0.108-11.998,0.163C683.734,86.503,694.128,85.924,694.936,83.554z M663.057,92.787
		c2.39,1.058,5.812,1.079,7.189-0.897c0.299-3.282-0.811-5.115-1.698-7.178C661.304,84.606,662.269,87.829,663.057,92.787z
		 M707.931,97.78c7.626-1.32,19.876-4.82,25.458-10.747C725.34,91.043,715.478,93.284,707.931,97.78z M697.423,89.922
		c-8.241,1.158-17.262-1.179-22.41-0.497C680.781,91.452,692.89,93.856,697.423,89.922z M672.809,103.857
		c2.142-1.337,3.764-3.179,4.723-5.665C673.186,87.961,661.688,101.338,672.809,103.857z M712.806,103.315
		c9.109-1.66,17.676-3.848,23.892-8.325c0.161-1.008,1.224-1.652-0.822-1.589C730.936,99.382,719.575,99.115,712.806,103.315z
		 M703.088,94.646c-8.531,1.531-13.951,2.45-22.399,0.303C685.87,99.068,697.537,99.237,703.088,94.646z M729.626,104.687
		c4.159-1.089,13.529-5.068,11.104-7.351C738.033,100.764,732.156,101.097,729.626,104.687z M674.527,112.635
		C693.788,114.876,670.024,91.037,674.527,112.635L674.527,112.635z M724.038,105.562c-10.951,7.293-26.422,1.016-36.042-2.712
		C692.188,110.96,721.09,117.002,724.038,105.562z M728.2,117.508c4.745,3.939,13.998-1.001,17.556-3.438
		C742.886,111.955,736.405,119.592,728.2,117.508z M730.688,123.875c7.55-0.283,13.739-1.89,17.523-5.838
		C744.188,118.727,735.598,121.453,730.688,123.875z M708.311,125.779c-2.138-1.59-7.348-0.022-9.622-1.47
		C698.536,127.741,706.438,127.121,708.311,125.779z M733.952,128.632c3.448-0.065,6.144-0.862,7.156-3.297
		C737.882,125.615,734.875,126.11,733.952,128.632z M710.754,128.946c-3.4,0.519-5.3-0.504-8.012-0.692
		C701.686,131.645,710.926,131.712,710.754,128.946z"/>
	<path fill-rule="evenodd" clip-rule="evenodd" fill="#F1E5C8" d="M431.958,161.527c4.769,4.023,10.263,7.298,14.562,11.804
		c5.562,23.756,16.006,42.495,31.168,56.386c-10.607-13.977-24.218-31.894-28.746-54.818c6.819,9.703,8.586,20.797,13.211,30.226
		c3.88,7.907,10.88,16.834,17.913,22.96c21.686,18.882,56.013,20.448,88.256,18.007c50.946-3.858,85.931-30.771,90.966-77.243
		c3.507,2.074,5.673,5.526,10.486,6.259c-4.65,20.999-12.296,39.081-24.084,53.133c15.774-10.435,18.977-33.105,26.505-51.566
		c-3.573,24.415-12.655,43.468-27.229,57.177c-1.948-0.438-4.842-0.328-7.2,0.099c1.069,4.287,4.509,0.935,8.833,2.279
		c2.249,2.909,4.314,10.601-0.639,12.011c-6.359-0.765-6.692-7.723-15.285-6.193c0.361,3.955,6.934,1.526,6.486,6.312
		c-5.352,0.092-11.415,0.914-13.632-2.216c-1.783,0.143,1.065,2.001,0.055,3.999c-26.391,12.84-73.126,17-105.443,12.632
		c-53.787-7.271-72.988-48.854-94.063-92.338C429.204,169.899,429.425,164.588,431.958,161.527z M503.645,255.768
		c23.842,10.56,66.547,5.051,95.238,1.91c4.162-2.62,18.189-3.746,15.9-7.417C586.282,261.621,536.835,262.646,503.645,255.768z"/>
</g>
</svg>
